<svg width="16" height="16" viewBox="0 0 16 16" fill="none" xmlns="http://www.w3.org/2000/svg">
<path d="M14.6667 7.99967C14.6676 9.27795 14.2985 10.5278 13.6059 11.5996C12.9133 12.6714 11.9276 13.5218 10.7629 14.0464C9.59811 14.571 8.30842 14.7486 7.05041 14.5574C5.7924 14.3662 4.6148 13.813 3.66667 12.9663M1.33334 7.99967C1.33239 6.72139 1.70148 5.47159 2.39409 4.39977C3.0867 3.32795 4.07239 2.47758 5.23711 1.95295C6.40183 1.42832 7.69152 1.25082 8.94953 1.44201C10.2075 1.63321 11.3851 2.18642 12.3333 3.03301" stroke="#9CA3AF" stroke-width="1.5" stroke-linecap="round" stroke-linejoin="round"/>
<path d="M14.6667 2.66699L8.00001 9.33366" stroke="#9CA3AF" stroke-width="1.5" stroke-linecap="round" stroke-linejoin="round"/>
<path d="M14.6667 7.33301V2.66634H10" stroke="#9CA3AF" stroke-width="1.5" stroke-linecap="round" stroke-linejoin="round"/>
<path d="M1.33334 13.333L8.00001 6.66634" stroke="#9CA3AF" stroke-width="1.5" stroke-linecap="round" stroke-linejoin="round"/>
<path d="M1.33334 8.66699V13.3337H6.00001" stroke="#9CA3AF" stroke-width="1.5" stroke-linecap="round" stroke-linejoin="round"/>
</svg> 