<svg width="16" height="16" viewBox="0 0 16 16" fill="none" xmlns="http://www.w3.org/2000/svg">
<rect x="2.625" y="2.625" width="7.75" height="7.75" rx="1.375" stroke="#686A72" stroke-width="1.25"/>
<path fill-rule="evenodd" clip-rule="evenodd" d="M5 12L5.01074 12.2041C5.1062 13.1457 5.85435 13.8938 6.7959 13.9893L7 14H12L12.2041 13.9893C13.1457 13.8938 13.8938 13.1457 13.9893 12.2041L14 12V7C14 5.96435 13.2128 5.113 12.2041 5.01074L12 5V6.25C12.4142 6.25 12.75 6.58579 12.75 7V12C12.75 12.4142 12.4142 12.75 12 12.75H7C6.58579 12.75 6.25 12.4142 6.25 12H5Z" fill="#686A72"/>
</svg>
