<svg width="24" height="24" viewBox="0 0 24 24" fill="none" xmlns="http://www.w3.org/2000/svg">
<path d="M12 4.75C14.5633 4.75 16.5625 6.69498 16.5625 9V10.0635C16.5625 12.0052 17.1804 13.8931 18.3213 15.4561L18.5557 15.7637C18.712 15.9599 18.5722 16.25 18.3213 16.25H5.67871C5.45905 16.25 5.32458 16.0278 5.39941 15.8408L5.44434 15.7637C6.73485 14.1441 7.4375 12.1343 7.4375 10.0635V9C7.4375 6.69498 9.43672 4.75 12 4.75Z" stroke="#27292E" stroke-width="1.5"/>
<mask id="path-2-inside-1_4453_661" fill="white">
<path d="M16.5 15.5C16.5 16.0909 16.3836 16.6761 16.1575 17.2221C15.9313 17.768 15.5998 18.2641 15.182 18.682C14.7641 19.0998 14.268 19.4313 13.7221 19.6575C13.1761 19.8836 12.5909 20 12 20C11.4091 20 10.8239 19.8836 10.2779 19.6575C9.73196 19.4313 9.23588 19.0998 8.81802 18.682C8.40016 18.2641 8.06869 17.768 7.84254 17.2221C7.6164 16.6761 7.5 16.0909 7.5 15.5L12 15.5H16.5Z"/>
</mask>
<path d="M16.5 15.5C16.5 16.0909 16.3836 16.6761 16.1575 17.2221C15.9313 17.768 15.5998 18.2641 15.182 18.682C14.7641 19.0998 14.268 19.4313 13.7221 19.6575C13.1761 19.8836 12.5909 20 12 20C11.4091 20 10.8239 19.8836 10.2779 19.6575C9.73196 19.4313 9.23588 19.0998 8.81802 18.682C8.40016 18.2641 8.06869 17.768 7.84254 17.2221C7.6164 16.6761 7.5 16.0909 7.5 15.5L12 15.5H16.5Z" stroke="#27292E" stroke-width="3" mask="url(#path-2-inside-1_4453_661)"/>
</svg>
