<svg width="24" height="24" viewBox="0 0 24 24" fill="none" xmlns="http://www.w3.org/2000/svg">
<mask id="path-1-inside-1_4453_662" fill="white">
<path d="M16.5 15.5C16.5 16.0909 16.3836 16.6761 16.1575 17.2221C15.9313 17.768 15.5998 18.2641 15.182 18.682C14.7641 19.0998 14.268 19.4313 13.7221 19.6575C13.1761 19.8836 12.5909 20 12 20C11.4091 20 10.8239 19.8836 10.2779 19.6575C9.73196 19.4313 9.23588 19.0998 8.81802 18.682C8.40016 18.2641 8.06869 17.768 7.84254 17.2221C7.6164 16.6761 7.5 16.0909 7.5 15.5L12 15.5H16.5Z"/>
</mask>
<path d="M16.5 15.5C16.5 16.0909 16.3836 16.6761 16.1575 17.2221C15.9313 17.768 15.5998 18.2641 15.182 18.682C14.7641 19.0998 14.268 19.4313 13.7221 19.6575C13.1761 19.8836 12.5909 20 12 20C11.4091 20 10.8239 19.8836 10.2779 19.6575C9.73196 19.4313 9.23588 19.0998 8.81802 18.682C8.40016 18.2641 8.06869 17.768 7.84254 17.2221C7.6164 16.6761 7.5 16.0909 7.5 15.5L12 15.5H16.5Z" stroke="#27292E" stroke-width="3" mask="url(#path-1-inside-1_4453_662)"/>
<path fill-rule="evenodd" clip-rule="evenodd" d="M17.7347 12.691C18.0438 13.6293 18.5184 14.5123 19.1428 15.2959C19.6906 15.9834 19.2006 17 18.3215 17H5.67891L5.51875 16.9883C4.74243 16.8743 4.34393 15.9405 4.85762 15.2959C5.96833 13.902 6.60476 12.1936 6.67988 10.4189L6.68769 10.0635V9C6.68769 6.23858 9.06618 4 12.0002 4C12.3089 4 12.6115 4.02478 12.9057 4.07235C12.4047 4.46767 11.9811 4.95683 11.6614 5.51331C9.64282 5.67306 8.18769 7.24794 8.18769 9V10.0635C8.18769 12.0022 7.61769 13.891 6.55976 15.5H17.4406C16.9287 14.7213 16.531 13.8772 16.2568 12.9935C16.7741 12.9674 17.2706 12.8626 17.7347 12.691Z" fill="#27292E"/>
<rect x="12" y="4" width="8" height="8" rx="4" fill="#D23D2C"/>
<path d="M17.7893 10H16.8149L15.1853 7.53276V10H14.2109V6H15.1853L16.8149 8.47863V6H17.7893V10Z" fill="white"/>
</svg>
