<svg width="32" height="32" viewBox="0 0 32 32" fill="none" xmlns="http://www.w3.org/2000/svg">
<path fill-rule="evenodd" clip-rule="evenodd" d="M9.61737 26.1649C9.49678 26.089 9.34992 26.0647 9.21229 26.1016L5.52356 27.09C5.15178 27.1896 4.81157 26.8494 4.91119 26.4776L5.89945 22.7894C5.93633 22.6517 5.91202 22.5048 5.83611 22.3842C2.91847 17.7486 3.478 11.5514 7.51472 7.51472C12.201 2.82843 19.799 2.82843 24.4853 7.51472C29.1716 12.201 29.1716 19.799 24.4853 24.4853C20.449 28.5215 14.2528 29.0814 9.61737 26.1649ZM11 17.5294C11.8284 17.5294 12.5 16.8579 12.5 16.0294C12.5 15.201 11.8284 14.5294 11 14.5294C10.1716 14.5294 9.5 15.201 9.5 16.0294C9.5 16.8579 10.1716 17.5294 11 17.5294ZM17.5 16.0294C17.5 16.8579 16.8284 17.5294 16 17.5294C15.1716 17.5294 14.5 16.8579 14.5 16.0294C14.5 15.201 15.1716 14.5294 16 14.5294C16.8284 14.5294 17.5 15.201 17.5 16.0294ZM21 17.5294C21.8284 17.5294 22.5 16.8579 22.5 16.0294C22.5 15.201 21.8284 14.5294 21 14.5294C20.1716 14.5294 19.5 15.201 19.5 16.0294C19.5 16.8579 20.1716 17.5294 21 17.5294Z" fill="#27292E"/>
</svg>
