<svg width="24" height="24" viewBox="0 0 24 24" fill="none" xmlns="http://www.w3.org/2000/svg">
<path d="M6 4.75H14C14.6904 4.75 15.25 5.30964 15.25 6V14C15.25 14.6904 14.6904 15.25 14 15.25H6C5.30964 15.25 4.75 14.6904 4.75 14V6C4.75 5.30964 5.30964 4.75 6 4.75Z" stroke="#A8AAB4" stroke-width="1.5"/>
<path fill-rule="evenodd" clip-rule="evenodd" d="M8 17V18L8.01074 18.2041C8.1062 19.1457 8.85435 19.8938 9.7959 19.9893L10 20H18L18.2041 19.9893C19.1457 19.8938 19.8938 19.1457 19.9893 18.2041L20 18V10C20 8.96435 19.2128 8.113 18.2041 8.01074L18 8H17V9.5H18C18.2761 9.5 18.5 9.72386 18.5 10V18C18.5 18.2761 18.2761 18.5 18 18.5H10C9.72386 18.5 9.5 18.2761 9.5 18V17H8Z" fill="#A8AAB4"/>
</svg>
