<svg width="24" height="25" viewBox="0 0 24 25" fill="none" xmlns="http://www.w3.org/2000/svg">
<path d="M11.1248 18.6252H12.8752V14.9711L14.2756 16.3715L15.501 15.1243L12 11.6233L8.49902 15.1243L9.74625 16.3496L11.1248 14.9711V18.6252ZM6.74854 21.251C6.26715 21.251 5.85506 21.0796 5.51225 20.7368C5.16945 20.394 4.99805 19.9819 4.99805 19.5005V5.49658C4.99805 5.0152 5.16945 4.6031 5.51225 4.2603C5.85506 3.9175 6.26715 3.74609 6.74854 3.74609H13.7505L19.002 8.99756V19.5005C19.002 19.9819 18.8306 20.394 18.4877 20.7368C18.1449 21.0796 17.7328 21.251 17.2515 21.251H6.74854ZM12.8752 9.8728V5.49658H6.74854V19.5005H17.2515V9.8728H12.8752Z" fill="#27292E"/>
</svg>
