<svg width="12" height="12" viewBox="0 0 12 12" fill="none" xmlns="http://www.w3.org/2000/svg">
<g clip-path="url(#clip0_4453_565)">
<circle cx="6" cy="6" r="1.5" fill="white"/>
<path d="M0 11.5V4.75C0 4.59262 0.0740973 4.44443 0.2 4.35L5.7 0.225C5.87778 0.0916667 6.12222 0.0916667 6.3 0.225L11.8 4.35C11.9259 4.44443 12 4.59262 12 4.75V11.5C12 11.7761 11.7761 12 11.5 12H8C7.72386 12 7.5 11.7761 7.5 11.5V10C7.5 9 7.2 8 6 8C4.8 8 4.5 9 4.5 10V11.5C4.5 11.7761 4.27614 12 4 12H0.5C0.223858 12 0 11.7761 0 11.5Z" fill="white"/>
</g>
<defs>
<clipPath id="clip0_4453_565">
<rect width="12" height="12" fill="white"/>
</clipPath>
</defs>
</svg>
